<svg class="play-svg" xmlns="http://www.w3.org/2000/svg" viewBox="0 0 24 24" width="45" height="45">
                                <circle cx="12" cy="12" r="10" fill="green" stroke="black" stroke-width="1" />
                                <path d="M15.3906 10.346C15.0371 11.689 13.3667 12.638 10.0257 14.5361C6.796 16.3709 5.1812 17.2884 3.87983 16.9196C3.3418 16.7671 2.85159 16.4776 2.45624 16.0787C2 15.1139 2 13.2426 2 10C2 6.7574 2 4.8861 2.45624 3.92132C2.85159 3.52245 3.3418 3.23288 3.87983 3.08042C5.1812 2.71165 6.796 3.62907 10.0257 5.46393C13.3667 7.36197 15.0371 8.311 15.3906 9.654C15.5365 10.2084 15.5365 10.7916 15.3906 11.346Z" stroke="black" stroke-width="1" stroke-linejoin="round" transform="scale(0.75 0.75)" />
                              </svg>